<svg width="440" height="104" viewBox="0 0 440 104" fill="none" xmlns="http://www.w3.org/2000/svg">
<path d="M436.144 22.5182C437.506 22.7474 438.796 21.8296 439.025 20.468C439.254 19.1065 438.336 17.8169 436.975 17.5876L436.56 20.0529L436.144 22.5182ZM18.4965 103.004C19.574 103.867 21.1474 103.694 22.0107 102.616L36.0788 85.0565C36.9421 83.9789 36.7684 82.4056 35.6909 81.5423C34.6134 80.679 33.04 80.8527 32.1767 81.9302L19.6717 97.5387L4.06321 85.0337C2.98567 84.1704 1.41232 84.344 0.549023 85.4216C-0.314268 86.4991 -0.140587 88.0725 0.936953 88.9358L18.4965 103.004ZM436.56 20.0529L436.975 17.5876C364.62 5.40336 256.86 -5.18066 168.798 2.73792C124.805 6.69383 85.4394 15.2893 57.8534 30.8213C44.0328 38.6028 33.0569 48.1877 25.9841 59.911C18.8903 71.6689 15.8189 85.4217 17.5747 101.327L20.0596 101.053L22.5445 100.779C20.9003 85.8841 23.7789 73.2451 30.2652 62.4939C36.7725 51.7082 47.0067 42.6665 60.3065 35.1782C86.9611 20.1706 125.477 11.6536 169.246 7.71783C256.709 -0.146929 363.999 10.3691 436.144 22.5182L436.56 20.0529Z" fill="#565656"/>
</svg>
