<svg width="274" height="21" viewBox="0 0 274 21" fill="none" xmlns="http://www.w3.org/2000/svg">
<path d="M1.00024 10.0352C5.92587 8.76863 10.8515 7.50204 17.6813 6.07553C24.511 4.64902 33.0957 3.10097 42.1622 2.16275C51.2288 1.22454 60.5171 0.943077 66.9908 1.00918C76.8536 1.10989 82.7144 2.49539 86.9023 3.55941C92.2852 4.92707 96.0882 5.62562 107.788 5.91135C118.218 6.16607 137.783 5.63415 150.605 5.20769C163.426 4.78122 168.915 4.2183 172.376 3.78757C175.836 3.35685 177.103 3.07538 182.259 2.93038C187.415 2.78539 196.422 2.78539 201.624 2.85575C210.246 2.97235 213.651 3.35258 221.549 3.56581C228.319 3.74859 240.705 3.63831 247.859 3.77904C259.162 4.00138 262.83 4.7727 268.867 4.98806C270.093 5.05842 270.515 5.19916 271.014 5.27165C271.513 5.34415 272.076 5.34415 272.656 5.34415" stroke="#C2F8E8" stroke-width="2" stroke-linecap="round"/>
<path d="M8.25006 19.844C12.1906 18.1552 15.0649 17.0038 19.8626 16.1551C23.7953 15.4594 30.8525 14.7435 42.1473 14.2382C53.4421 13.7328 68.7819 13.5921 77.8805 13.6603C86.979 13.7285 89.3714 14.01 104.325 14.0143C119.279 14.0185 146.722 13.7371 161.844 13.4513C176.966 13.1656 178.937 12.8841 184.314 12.6688C189.692 12.4534 198.417 12.3127 203.475 12.3106C209.661 12.3079 211.804 12.8756 214.141 13.4428C215.484 13.7687 217.182 14.01 225.37 14.155C233.558 14.3 248.194 14.3 256.015 14.3704C263.837 14.4407 264.399 14.5815 265.041 14.654C265.683 14.7265 266.387 14.7265 267.112 14.7265" stroke="#C2F8E8" stroke-width="2" stroke-linecap="round"/>
</svg>
