<svg width="21" height="21" viewBox="0 0 21 21" fill="none" xmlns="http://www.w3.org/2000/svg">
<path d="M14 10.5C14 12.433 12.433 14 10.5 14C8.567 14 7 12.433 7 10.5C7 8.567 8.567 7 10.5 7C12.433 7 14 8.567 14 10.5ZM14 10.5V11.8125C14 13.0206 14.9794 14 16.1875 14C17.3956 14 18.375 13.0206 18.375 11.8125V10.5C18.375 6.15076 14.8493 2.625 10.5 2.625C6.15076 2.625 2.625 6.15076 2.625 10.5C2.625 14.8493 6.15076 18.375 10.5 18.375H14" stroke="#888888" stroke-linecap="round" stroke-linejoin="round"/>
</svg>
