<svg width="18" height="42" viewBox="0 0 18 42" fill="none" xmlns="http://www.w3.org/2000/svg">
<path d="M5.14368 36.5693C5.14368 37.5544 5.14368 38.5396 5.35478 39.1878C5.56587 39.836 5.98807 40.1175 6.48703 40.1921C6.98599 40.2667 7.54892 40.126 7.90928 39.8424C8.58948 39.3071 8.83683 38.2794 8.98182 37.4286C9.16686 36.3429 6.15439 36.1428 3.73849 36.3539C2.84873 36.4317 2.72991 36.9872 2.72778 37.4158C2.72564 37.8444 2.86638 38.2666 3.14997 38.5545C3.72948 39.1427 5.13515 39.1281 6.41453 38.8466C6.92054 38.7353 6.84952 38.0022 6.63842 37.7826C6.42732 37.563 6.00513 37.7037 5.858 37.9873C5.71087 38.2709 5.8516 38.6931 6.84952 38.2751" stroke="#C2F8E8" stroke-width="2" stroke-linecap="round"/>
<path d="M4.29079 31.4536C3.3014 23.3764 2.15849 17.1074 1.45056 11.6445C1.05426 8.58624 0.879104 5.73797 1.0902 3.46494C1.1726 2.57767 1.7235 2.31776 2.36319 1.96166C3.82739 1.14659 7.25043 0.748381 11.5108 1.17058C16.0871 1.62408 16.0867 5.85738 16.656 7.98969C16.9577 9.11941 17.0846 10.4077 16.9439 11.685C16.5775 15.0102 11.5492 18.0798 9.55758 21.7025C8.25252 24.0765 6.56809 25.901 5.99877 27.6794C5.66365 28.7262 5.42944 29.8842 5.14584 30.9482C5.01165 31.4517 4.86225 31.8715 4.78975 30.4002C4.55108 25.5567 4.85798 21.5085 5.21195 20.4445C5.85463 18.5126 8.12041 17.6703 9.89875 16.4613C10.4057 16.1167 10.9606 15.683 11.4617 15.2544C11.9628 14.8259 12.385 14.4037 11.8285 14.1862C11.272 13.9687 9.7239 13.9687 9.27825 13.8279C7.52583 13.2745 12.3893 11.9814 12.8179 11.4142C12.9902 11.1861 12.4021 10.847 11.9031 10.9834C11.4042 11.1199 10.8412 11.6828 10.7623 11.6914C8.96517 11.8857 12.2485 8.15174 12.1121 4.81255C12.0779 3.9756 11.2677 3.46067 10.6962 3.24104C10.1248 3.02142 9.56185 3.16215 9.13112 3.44575C8.29367 3.99714 7.70674 4.86799 7.27815 5.22409C7.22054 5.27196 7.69395 5.15799 7.70035 5.01512C7.70674 4.87226 7.28455 4.73153 6.85595 5.01086C4.50855 6.54076 5.14371 10.9621 5.42518 13.7384C5.70229 16.4717 8.26967 9.28186 8.2718 8.57181C8.27276 8.25232 7.71101 8.14321 7.21205 8.14108C6.14116 8.1365 5.14798 8.98761 4.36755 10.122C3.62941 11.1949 3.29714 12.2586 3.36537 12.7575C3.70854 15.267 6.99029 8.71467 7.20352 8.28394C7.13528 10.6934 6.56809 12.9622 6.49346 16.1628C6.56383 16.5317 6.70456 16.1095 6.84956 15.248" stroke="#C2F8E8" stroke-width="2" stroke-linecap="round"/>
</svg>
