<svg width="266" height="266" viewBox="0 0 266 266" fill="none" xmlns="http://www.w3.org/2000/svg">
<rect width="266" height="266" fill="#F3FFFB" fill-opacity="0.2"/>
<path d="M26.1887 40.9004C28.1416 40.9152 35.0356 35.9887 41.2048 33.7548C44.6765 32.4977 47.877 36.4326 53.7725 39.1695C64.0923 43.9604 72.0211 35.4857 79.4182 33.5107C88.5793 31.0647 97.6742 34.9531 107.734 37.6901C136.1 45.4073 155.727 36.4622 175.802 35.2342C184.971 34.6734 191.854 38.918 197.779 40.893C200.73 41.8768 205.657 42.3798 211.567 42.1357C214.06 41.8916 215.525 41.4034 217.034 40.9004" stroke="#C2F8E8" stroke-opacity="0.3" stroke-width="2" stroke-linecap="round"/>
<path d="M40.9829 86.7628C43.927 85.2982 49.8298 78.4189 55.999 73.4628C62.3966 68.3233 71.5181 69.5128 80.1579 69.7421C87.5143 69.9373 89.7741 82.2949 95.9433 85.0319C102.522 87.9504 110.959 80.3717 119.118 76.6658C127.996 72.6335 141.554 76.8803 155.298 79.1142C194.828 79.8539 204.636 80.8451 212.817 82.073C214.548 82.3245 216.501 82.3245 218.513 82.3245" stroke="#C2F8E8" stroke-opacity="0.3" stroke-width="2" stroke-linecap="round"/>
<path d="M40.9829 134.104C54.7711 121.78 63.618 119.812 92.6516 119.554C103.92 119.453 110.486 129.133 116.899 135.073C126.042 143.54 143.033 136.086 154.824 134.355C184.96 134.592 199.665 135.583 210.591 136.811C213.054 137.062 216.471 137.062 219.992 137.062" stroke="#C2F8E8" stroke-opacity="0.3" stroke-width="2" stroke-linecap="round"/>
<path d="M42.4624 171.089C66.5621 166.665 102.882 163.692 119.37 165.652C131.713 167.119 148.951 170.586 173.295 171.577C184.242 172.023 192.83 175.024 209.082 175.771C212.581 176.015 214.045 176.503 215.776 176.755C217.507 177.006 219.46 177.006 221.472 177.006" stroke="#C2F8E8" stroke-opacity="0.3" stroke-width="2" stroke-linecap="round"/>
</svg>
