<svg width="128" height="128" viewBox="0 0 128 128" fill="none" xmlns="http://www.w3.org/2000/svg">
<path d="M84.998 24.843C89.528 20.3129 89.528 12.9683 84.998 8.43826C80.4679 3.90822 73.1233 3.90822 68.5932 8.43826C64.0632 12.9683 64.0632 20.3129 68.5932 24.843C73.1233 29.373 80.4679 29.373 84.998 24.843Z" fill="#737373"/>
<path d="M96.5 60.2001L77.3 51.3L70 31.4C69.6 30.4 69 29.4 68.1 28.5C67.4 27.8 64.8 25.2 64 24.4C60.7 21.1 55.1 21.1 51.6 24.4C51.6 24.4 44.1 29.9001 38.6 35.4001C33.1 40.9001 26.2 50 26.2 50C24.5 51.7001 23.6 53.9001 23.6 56.2001V116.5C23.6 120.6 26.8 123.8 30.9 123.8C35 123.8 38.2 120.6 38.2 116.5V68.9001C39.8 68.6001 41.4 67.7 42.7 66.6L64.4 44.9001L68.8 56.8C69.2 58.1 70.3 59.1001 71.4 59.7001L92.5 69.6C95.1 70.8 98 69.7 99.3 67.1C100.1 64.4 99.1 61.3 96.5 60.2001Z" fill="#737373"/>
<path d="M97 72.9004H93.5V123.8H97V72.9004Z" fill="#737373"/>
</svg>
