<svg width="82" height="82" viewBox="0 0 82 82" fill="none" xmlns="http://www.w3.org/2000/svg">
<path d="M13.6667 71.75V63.2083C13.6667 52.8298 22.0801 44.4166 32.4584 44.4166H46.1251M27.3334 71.75V61.5M54.6667 22.2083C54.6667 29.7562 48.5478 35.875 41.0001 35.875C33.4522 35.875 27.3334 29.7562 27.3334 22.2083C27.3334 14.6604 33.4522 8.54163 41.0001 8.54163C48.5478 8.54163 54.6667 14.6604 54.6667 22.2083ZM59.7917 44.4159C58.2334 42.3417 55.7526 41 52.9584 41C48.241 41 44.4167 44.8242 44.4167 49.5416C44.4167 51.6582 45.1865 53.5952 46.4616 55.0872L59.7917 71.75L73.1219 55.0872C74.397 53.5952 75.1667 51.6582 75.1667 49.5416C75.1667 44.8242 71.3425 41 66.6251 41C63.8309 41 61.3501 42.3417 59.7917 44.4159Z" stroke="black" stroke-opacity="0.7" stroke-width="4" stroke-linecap="round" stroke-linejoin="round"/>
</svg>
