<svg width="547" height="472" viewBox="0 0 547 472" fill="none" xmlns="http://www.w3.org/2000/svg">
<path d="M217.212 294.15C211.831 295.393 206.462 292.037 205.219 286.656L174.701 154.469L42.5116 184.988C37.1303 186.23 31.7608 182.875 30.5184 177.494L-2.58923e-05 45.3036L6.92333 43.7053L35.8432 168.971C37.0855 174.352 42.4552 177.707 47.8364 176.465L180.026 145.947L210.544 278.135C211.787 283.517 217.156 286.872 222.538 285.63L354.727 255.111L356.325 262.034L217.212 294.15ZM391.913 403.317C386.532 404.559 381.162 401.204 379.92 395.823L349.402 263.633L356.325 262.035L385.245 387.3C386.487 392.681 391.857 396.037 397.238 394.795L522.505 365.875L524.103 372.799L391.913 403.317Z" fill="#BFF8E8" fill-opacity="0.75"/>
<path d="M239.212 270.15C233.831 271.393 228.462 268.037 227.219 262.656L196.701 130.469L64.5116 160.988C59.1303 162.23 53.7608 158.875 52.5184 153.494L22 21.3036L28.9233 19.7053L57.8432 144.971C59.0855 150.352 64.4552 153.707 69.8364 152.465L202.026 121.947L232.544 254.135C233.787 259.517 239.156 262.872 244.538 261.63L376.727 231.111L378.325 238.034L239.212 270.15ZM413.913 379.317C408.532 380.559 403.162 377.204 401.92 371.823L371.402 239.633L378.325 238.035L407.245 363.3C408.487 368.681 413.857 372.037 419.238 370.795L544.505 341.875L546.103 348.799L413.913 379.317Z" fill="#BFF8E8" fill-opacity="0.25"/>
</svg>
